<svg width="20" height="21" viewBox="0 0 20 21" fill="none" xmlns="http://www.w3.org/2000/svg">
<path d="M4.40765 14.2666C3.32112 14.2666 2.43982 15.1479 2.43974 16.2345C2.44005 17.3212 3.32121 18.2024 4.40791 18.2027C5.49443 18.2025 6.37574 17.3212 6.37582 16.2347C6.37565 15.1479 5.49449 14.2668 4.40765 14.2666Z" fill="#6C6C78"/>
<path d="M8.70125 11.9415C7.55478 10.795 6.02965 10.163 4.40837 10.1638C3.7719 10.1637 3.25622 10.6794 3.25656 11.3156C3.25645 11.9518 3.7719 12.4673 4.40837 12.4674C5.41421 12.4667 6.36038 12.8588 7.07218 13.5706C7.78398 14.2824 8.17606 15.2286 8.17535 16.2344C8.17555 16.5528 8.30495 16.8412 8.51278 17.049C8.7217 17.2579 9.00905 17.3863 9.32715 17.3862C9.96341 17.3865 10.4791 16.8709 10.479 16.2344C10.4797 14.6131 9.84773 13.088 8.70125 11.9415Z" fill="#6C6C78"/>
<path d="M11.3832 9.25913C9.51987 7.39585 7.04255 6.36984 4.40784 6.37001C3.77163 6.37013 3.25589 6.88587 3.25603 7.52182C3.25615 8.15825 3.77189 8.67399 4.40781 8.67359C6.42728 8.6733 8.32614 9.46003 9.75417 10.8881C11.1816 12.3155 11.9683 14.2144 11.9681 16.2339C11.968 16.552 12.0974 16.8405 12.3052 17.0483C12.5141 17.2572 12.8018 17.3858 13.1199 17.3857C13.7558 17.3858 14.2716 16.8701 14.2717 16.2339C14.2719 13.5992 13.2464 11.1224 11.3832 9.25913Z" fill="#6C6C78"/>
<path d="M18.0735 16.2347C18.0741 12.5844 16.6528 9.15285 14.0713 6.57133C11.4898 3.9898 8.05826 2.5685 4.40794 2.56913C3.7717 2.56928 3.25596 3.08501 3.25611 3.72096C3.25631 4.03933 3.3852 4.32718 3.59357 4.53556C3.80195 4.74393 4.09038 4.8734 4.40791 4.87277C7.44284 4.87222 10.2964 6.05436 12.4423 8.20031C14.5883 10.3463 15.7699 13.1992 15.7694 16.2342C15.7692 16.8704 16.2849 17.3855 16.9209 17.3863C17.5571 17.3861 18.0728 16.8704 18.0735 16.2347Z" fill="#6C6C78"/>
</svg>
