<svg width="16" height="18" viewBox="0 0 16 18" fill="none" xmlns="http://www.w3.org/2000/svg">
<path d="M8.00049 10.9966C11.0799 10.9967 13.6529 12.5538 14.9663 13.5376C15.3754 13.844 15.519 14.3697 15.3442 14.8794L15.02 15.8237C14.818 16.4131 14.2301 16.8335 13.5435 16.8335H2.45654C1.76989 16.8335 1.18202 16.4131 0.97998 15.8237L0.655762 14.8794C0.481051 14.3697 0.624721 13.844 1.03369 13.5376C2.34713 12.5537 4.92083 10.9966 8.00049 10.9966ZM8.00049 1.1665C10.0125 1.16667 11.6018 2.71426 11.6021 4.57275C11.6021 6.43143 10.0127 7.97981 8.00049 7.97998C5.98816 7.97998 4.39893 6.43153 4.39893 4.57275C4.39915 2.71416 5.9883 1.1665 8.00049 1.1665Z" stroke="#6C6C78"/>
</svg>
