<svg width="20" height="19" viewBox="0 0 20 19" fill="none" xmlns="http://www.w3.org/2000/svg">
<path d="M10 18.3873C9.71527 18.3873 9.44077 18.2842 9.22684 18.0968C8.41888 17.3903 7.63992 16.7264 6.95267 16.1408L6.94916 16.1377C4.93423 14.4207 3.19427 12.9378 1.98364 11.4771C0.630341 9.84409 0 8.29578 0 6.60434C0 4.96097 0.563507 3.44485 1.58661 2.33508C2.62192 1.21219 4.04251 0.59375 5.58716 0.59375C6.74164 0.59375 7.79892 0.95874 8.72955 1.6785C9.19922 2.04181 9.62494 2.48645 10 3.0051C10.3752 2.48645 10.8008 2.04181 11.2706 1.6785C12.2012 0.95874 13.2585 0.59375 14.413 0.59375C15.9575 0.59375 17.3782 1.21219 18.4135 2.33508C19.4366 3.44485 20 4.96097 20 6.60434C20 8.29578 19.3698 9.84409 18.0165 11.4769C16.8059 12.9378 15.0661 14.4205 13.0515 16.1374C12.363 16.724 11.5828 17.3889 10.773 18.0971C10.5592 18.2842 10.2846 18.3873 10 18.3873ZM5.58716 1.76532C4.37363 1.76532 3.25882 2.24963 2.44781 3.12915C1.62476 4.02194 1.17142 5.25607 1.17142 6.60434C1.17142 8.02692 1.70013 9.29919 2.88559 10.7296C4.03137 12.1122 5.73563 13.5645 7.70889 15.2462L7.71255 15.2492C8.4024 15.8371 9.18442 16.5036 9.99832 17.2153C10.8171 16.5023 11.6003 15.8347 12.2916 15.2458C14.2647 13.5642 15.9688 12.1122 17.1146 10.7296C18.2999 9.29919 18.8286 8.02692 18.8286 6.60434C18.8286 5.25607 18.3752 4.02194 17.5522 3.12915C16.7413 2.24963 15.6264 1.76532 14.413 1.76532C13.524 1.76532 12.7078 2.04791 11.9872 2.60516C11.3449 3.10199 10.8975 3.73004 10.6352 4.16949C10.5003 4.39548 10.2629 4.53036 10 4.53036C9.73709 4.53036 9.49966 4.39548 9.36478 4.16949C9.10263 3.73004 8.65524 3.10199 8.01285 2.60516C7.29218 2.04791 6.47598 1.76532 5.58716 1.76532Z" fill="#6C6C78"/>
</svg>
