<svg width="21" height="20" viewBox="0 0 21 20" fill="none" xmlns="http://www.w3.org/2000/svg">
<path d="M10.75 0C5.22326 0 0.75 4.4725 0.75 10C0.75 11.754 1.20746 13.4671 2.07614 14.978L0.787689 18.9792C0.697815 19.2581 0.771667 19.5639 0.978882 19.7711C1.18411 19.9763 1.48914 20.0529 1.77081 19.9623L5.77197 18.6738C7.28289 19.5425 8.996 20 10.75 20C16.2767 20 20.75 15.5275 20.75 10C20.75 4.47326 16.2775 0 10.75 0ZM6.84375 9.02343C7.38314 9.02343 7.82031 9.4606 7.82031 10C7.82031 10.5392 7.38314 10.9766 6.84375 10.9766C6.3045 10.9766 5.86719 10.5392 5.86719 10C5.86719 9.4606 6.3045 9.02343 6.84375 9.02343ZM10.75 9.02343C11.2894 9.02343 11.7266 9.4606 11.7266 10C11.7266 10.5392 11.2894 10.9766 10.75 10.9766C10.2106 10.9766 9.77343 10.5392 9.77343 10C9.77343 9.4606 10.2106 9.02343 10.75 9.02343ZM14.6562 9.02343C15.1956 9.02343 15.6328 9.4606 15.6328 10C15.6328 10.5392 15.1956 10.9766 14.6562 10.9766C14.1168 10.9766 13.6797 10.5392 13.6797 10C13.6797 9.4606 14.1168 9.02343 14.6562 9.02343Z" fill="#2DC28D"/>
</svg>
