<svg width="20" height="21" viewBox="0 0 20 21" fill="none" xmlns="http://www.w3.org/2000/svg">
<path d="M4.47642 20.0956C4.2573 20.0956 4.03971 20.0273 3.854 19.893C3.50808 19.6423 3.34648 19.2114 3.44063 18.7956L4.72729 13.1278L0.363771 9.30115C0.0430227 9.02114 -0.0795085 8.57771 0.0521782 8.17197C0.183865 7.76699 0.54215 7.48027 0.966356 7.44105L6.73982 6.9169L9.02244 1.57512C9.19075 1.18265 9.57406 0.929199 9.99994 0.929199C10.4258 0.929199 10.8091 1.18265 10.9774 1.5742L13.2601 6.9169L19.0326 7.44105C19.4577 7.47935 19.816 7.76699 19.9477 8.17197C20.0794 8.57695 19.9576 9.02114 19.6369 9.30115L15.2734 13.1271L16.56 18.7946C16.6543 19.2114 16.4926 19.6423 16.1468 19.8922C15.8018 20.1422 15.3417 20.1614 14.9784 19.9431L9.99994 16.968L5.02148 19.9447C4.85317 20.0447 4.66564 20.0956 4.47642 20.0956ZM9.99994 15.6864C10.1892 15.6864 10.3765 15.7372 10.545 15.8371L15.2435 18.6472L14.0291 13.2978C13.9425 12.9171 14.0717 12.5196 14.3659 12.262L18.486 8.64867L13.035 8.15366C12.6425 8.1178 12.305 7.87106 12.1516 7.50942L9.99994 2.46839L7.84565 7.51018C7.69397 7.86938 7.35644 8.11612 6.96489 8.15198L1.51309 8.64699L5.63307 12.2604C5.92818 12.5187 6.05728 12.9154 5.96984 13.2971L4.75643 18.6463L9.45488 15.8371C9.62319 15.7372 9.81073 15.6864 9.99994 15.6864ZM6.69572 7.02021C6.69572 7.02021 6.69572 7.02112 6.6948 7.02188L6.69572 7.02021ZM13.3025 7.01777L13.3034 7.01944C13.3034 7.01853 13.3034 7.01853 13.3025 7.01777Z" fill="#6C6C78"/>
</svg>
