<svg width="20" height="21" viewBox="0 0 20 21" fill="none" xmlns="http://www.w3.org/2000/svg">
<g clip-path="url(#clip0_3009_20559)">
<path d="M10.6276 20.5H9.37238C8.35719 20.5 7.53121 19.6741 7.53121 18.6589V18.2342C7.09961 18.0963 6.68027 17.9223 6.27742 17.7138L5.97648 18.0147C5.24762 18.7445 4.08008 18.7231 3.37238 18.0145L2.48523 17.1273C1.77629 16.4192 1.7559 15.252 2.48547 14.5232L2.78617 14.2225C2.5777 13.8197 2.40367 13.4004 2.26574 12.9688H1.84113C0.825976 12.9688 0 12.1428 0 11.1276V9.87238C0 8.85719 0.825976 8.03125 1.84117 8.03125H2.26578C2.40371 7.59961 2.57773 7.18031 2.78621 6.77746L2.48527 6.47656C1.75613 5.7482 1.77625 4.58094 2.48551 3.87246L3.37273 2.98527C4.08207 2.27496 5.24934 2.25723 5.9768 2.98551L6.27746 3.28617C6.68031 3.07773 7.09965 2.90367 7.53125 2.76574V2.34113C7.53125 1.32594 8.35719 0.5 9.37242 0.5H10.6276C11.6428 0.5 12.4688 1.32594 12.4688 2.34113V2.76578C12.9004 2.90367 13.3197 3.07773 13.7225 3.28621L14.0235 2.98527C14.7523 2.25551 15.9199 2.27691 16.6276 2.98555L17.5147 3.87266C18.2237 4.58082 18.2441 5.74797 17.5145 6.47676L17.2138 6.77746C17.4223 7.18031 17.5963 7.59957 17.7342 8.03125H18.1588C19.174 8.03125 20 8.85719 20 9.87238V11.1276C20 12.1428 19.174 12.9688 18.1588 12.9688H17.7342C17.5963 13.4004 17.4223 13.8197 17.2138 14.2225L17.5147 14.5235C18.2439 15.2518 18.2237 16.4191 17.5145 17.1276L16.6273 18.0148C15.9179 18.7251 14.7507 18.7428 14.0232 18.0145L13.7225 17.7139C13.3197 17.9223 12.9004 18.0964 12.4688 18.2343V18.6589C12.4688 19.6741 11.6428 20.5 10.6276 20.5ZM6.47332 16.4832C7.03297 16.8142 7.63531 17.0642 8.26359 17.2264C8.52234 17.2931 8.70312 17.5265 8.70312 17.7937V18.6589C8.70312 19.0279 9.0034 19.3281 9.37242 19.3281H10.6276C10.9966 19.3281 11.2969 19.0279 11.2969 18.6589V17.7937C11.2969 17.5265 11.4777 17.2931 11.7364 17.2264C12.3647 17.0642 12.9671 16.8142 13.5267 16.4832C13.757 16.347 14.0502 16.3841 14.2393 16.5732L14.8521 17.1861C15.1164 17.4506 15.5407 17.4445 15.7984 17.1864L16.6862 16.2986C16.9433 16.0418 16.9519 15.6175 16.6864 15.3523L16.0733 14.7393C15.8842 14.5501 15.8471 14.2569 15.9833 14.0267C16.3143 13.4671 16.5643 12.8647 16.7264 12.2364C16.7932 11.9777 17.0266 11.7969 17.2938 11.7969H18.1589C18.5279 11.7969 18.8282 11.4967 18.8282 11.1277V9.87242C18.8282 9.5034 18.5279 9.20316 18.1589 9.20316H17.2938C17.0265 9.20316 16.7932 9.02238 16.7264 8.76367C16.5643 8.13535 16.3142 7.53301 15.9833 6.9734C15.8471 6.74316 15.8842 6.44996 16.0733 6.26082L16.6862 5.64797C16.9511 5.38336 16.9442 4.95914 16.6864 4.70168L15.7987 3.81398C15.5414 3.55633 15.117 3.54879 14.8524 3.81375L14.2394 4.42684C14.0502 4.61602 13.757 4.65305 13.5268 4.51688C12.9671 4.1859 12.3648 3.93586 11.7365 3.77371C11.4777 3.70695 11.297 3.47359 11.297 3.20637V2.34113C11.297 1.97211 10.9967 1.67188 10.6277 1.67188H9.37246C9.00344 1.67188 8.70316 1.97211 8.70316 2.34113V3.20629C8.70316 3.47352 8.52238 3.70688 8.26363 3.77363C7.63535 3.93578 7.03301 4.18582 6.47336 4.5168C6.24305 4.65293 5.94988 4.6159 5.76074 4.42676L5.14793 3.81391C4.88371 3.54938 4.45938 3.55551 4.20168 3.81363L3.31391 4.70137C3.0568 4.95816 3.0482 5.3825 3.31367 5.64766L3.92676 6.26074C4.1159 6.44988 4.15293 6.74309 4.0168 6.97332C3.68582 7.53293 3.43582 8.13527 3.27367 8.76359C3.20688 9.02234 2.97352 9.20309 2.70633 9.20309H1.84117C1.47215 9.20312 1.17188 9.50336 1.17188 9.87238V11.1276C1.17188 11.4966 1.47215 11.7969 1.84117 11.7969H2.70629C2.97352 11.7969 3.20684 11.9777 3.27363 12.2364C3.43578 12.8647 3.68582 13.467 4.01676 14.0266C4.15289 14.2569 4.11586 14.5501 3.92672 14.7392L3.31387 15.3521C3.04895 15.6167 3.05586 16.0409 3.31363 16.2984L4.20133 17.1861C4.45863 17.4437 4.88301 17.4513 5.14762 17.1863L5.76066 16.5732C5.90004 16.4339 6.19 16.3156 6.47332 16.4832Z" fill="#6C6C78"/>
<path d="M10 14.8516C7.60051 14.8516 5.64844 12.8995 5.64844 10.5C5.64844 8.10055 7.60051 6.14844 10 6.14844C12.3995 6.14844 14.3516 8.10055 14.3516 10.5C14.3516 12.8995 12.3995 14.8516 10 14.8516ZM10 7.32031C8.24668 7.32031 6.82031 8.74672 6.82031 10.5C6.82031 12.2533 8.24672 13.6797 10 13.6797C11.7533 13.6797 13.1797 12.2533 13.1797 10.5C13.1797 8.74672 11.7533 7.32031 10 7.32031Z" fill="#6C6C78"/>
</g>
<defs>
<clipPath id="clip0_3009_20559">
<rect width="20" height="20" fill="white" transform="translate(0 0.5)"/>
</clipPath>
</defs>
</svg>
