<svg width="14" height="14" viewBox="0 0 14 14" fill="none" xmlns="http://www.w3.org/2000/svg">
<path fill-rule="evenodd" clip-rule="evenodd" d="M7.00016 8.66678C7.92097 8.66678 8.66678 7.92013 8.66678 7.00016C8.66678 6.85183 8.64178 6.71017 8.60511 6.57351L13.4225 1.75616C13.7483 1.43034 13.7483 0.903687 13.4225 0.577863C13.0966 0.25204 12.57 0.25204 12.2442 0.577863L10.0692 2.7528C9.22176 2.30448 8.20763 2.00032 7.00016 2.00032C2.32364 2.00032 0.469534 6.49935 0.392869 6.69017C0.314538 6.88933 0.314538 7.11099 0.392869 7.31015C0.437868 7.42098 1.08868 8.98593 2.54447 10.2776L0.577863 12.2442C0.25204 12.57 0.25204 13.0966 0.577863 13.4225C0.740358 13.585 0.953685 13.6666 1.16701 13.6666C1.38034 13.6666 1.59367 13.585 1.75616 13.4225L6.57351 8.60511C6.71017 8.64095 6.85183 8.66678 7.00016 8.66678ZM3.66693 7.00016C3.66693 5.15939 5.15939 3.66693 7.00016 3.66693C7.61848 3.66693 8.19346 3.84026 8.68761 4.13442L7.42682 5.39521C7.29015 5.35938 7.14932 5.33355 7.00016 5.33355C6.08019 5.33355 5.33355 6.08019 5.33355 7.00016C5.33355 7.14849 5.35938 7.28932 5.39521 7.42598L4.13442 8.68761C3.84109 8.19263 3.66693 7.61764 3.66693 7.00016ZM12.1204 4.37983L10.2438 6.25644C10.298 6.49643 10.333 6.74392 10.333 7.00058C10.333 8.84136 8.84136 10.3338 6.99975 10.3338C6.74392 10.3338 6.49726 10.2988 6.25727 10.2438L4.85565 11.6446C5.49479 11.8621 6.2031 12.0004 6.99975 12.0004C11.6771 12.0004 13.5304 7.5014 13.607 7.30974C13.6862 7.11058 13.6862 6.88975 13.607 6.69059C13.5704 6.59809 13.1104 5.49313 12.1204 4.37983Z" fill="#6C6C78"/>
</svg>
