<svg width="21" height="20" viewBox="0 0 21 20" fill="none" xmlns="http://www.w3.org/2000/svg">
<g clip-path="url(#clip0_40000138_15)">
<path d="M17.5833 20H3.625C1.90167 20 0.5 18.5983 0.5 16.875V2.29167C0.5 1.0275 1.5275 0 2.79167 0H13.2083C14.4725 0 15.5 1.0275 15.5 2.29167V2.5H18.2083C19.4725 2.5 20.5 3.5275 20.5 4.79167V16.875C20.5 18.4717 19.2967 19.7917 17.7492 19.9775C17.6967 19.9925 17.6408 20 17.5833 20ZM15.5 3.75V16.875C15.5 17.9092 16.3408 18.75 17.375 18.75C18.4092 18.75 19.25 17.9092 19.25 16.875V4.79167C19.25 4.2175 18.7825 3.75 18.2083 3.75H15.5ZM2.79167 1.25C2.2175 1.25 1.75 1.7175 1.75 2.29167V16.875C1.75 17.9092 2.59083 18.75 3.625 18.75H14.8767C14.4833 18.2275 14.25 17.5775 14.25 16.875V2.29167C14.25 1.7175 13.7825 1.25 13.2083 1.25H2.79167Z" fill="#6C6C78"/>
<path d="M7.375 7.5H3.625C3.28 7.5 3 7.22 3 6.875V3.125C3 2.78 3.28 2.5 3.625 2.5H7.375C7.72 2.5 8 2.78 8 3.125V6.875C8 7.22 7.72 7.5 7.375 7.5ZM4.25 6.25H6.75V3.75H4.25V6.25Z" fill="#6C6C78"/>
<path d="M12.3748 4.5835H10.2915C9.9465 4.5835 9.6665 4.3035 9.6665 3.9585C9.6665 3.6135 9.9465 3.3335 10.2915 3.3335H12.3748C12.7198 3.3335 12.9998 3.6135 12.9998 3.9585C12.9998 4.3035 12.7198 4.5835 12.3748 4.5835Z" fill="#6C6C78"/>
<path d="M12.3748 7.0835H10.2915C9.9465 7.0835 9.6665 6.8035 9.6665 6.4585C9.6665 6.1135 9.9465 5.8335 10.2915 5.8335H12.3748C12.7198 5.8335 12.9998 6.1135 12.9998 6.4585C12.9998 6.8035 12.7198 7.0835 12.3748 7.0835Z" fill="#6C6C78"/>
<path d="M12.375 10.4165H3.625C3.28 10.4165 3 10.1365 3 9.7915C3 9.4465 3.28 9.1665 3.625 9.1665H12.375C12.72 9.1665 13 9.4465 13 9.7915C13 10.1365 12.72 10.4165 12.375 10.4165Z" fill="#6C6C78"/>
<path d="M12.375 13.5415H3.625C3.28 13.5415 3 13.2615 3 12.9165C3 12.5715 3.28 12.2915 3.625 12.2915H12.375C12.72 12.2915 13 12.5715 13 12.9165C13 13.2615 12.72 13.5415 12.375 13.5415Z" fill="#6C6C78"/>
<path d="M12.375 16.6665H3.625C3.28 16.6665 3 16.3865 3 16.0415C3 15.6965 3.28 15.4165 3.625 15.4165H12.375C12.72 15.4165 13 15.6965 13 16.0415C13 16.3865 12.72 16.6665 12.375 16.6665Z" fill="#6C6C78"/>
</g>
<defs>
<clipPath id="clip0_40000138_15">
<rect width="20" height="20" fill="white" transform="translate(0.5)"/>
</clipPath>
</defs>
</svg>
