<svg width="20" height="15" viewBox="0 0 20 15" fill="none" xmlns="http://www.w3.org/2000/svg">
<path d="M19.9794 10.4707C19.6492 8.611 18.4151 7.11777 16.7878 6.42517C17.51 5.81955 17.9712 4.9025 17.9712 3.87802C17.9712 2.05841 16.5168 0.578003 14.7289 0.578003C12.941 0.578003 11.4865 2.05826 11.4865 3.87802C11.4865 4.90311 11.9483 5.82047 12.6712 6.42624C12.4015 6.54129 12.1401 6.67862 11.8904 6.83869C11.2613 7.24213 10.7242 7.77344 10.3102 8.39569C9.88895 8.11585 9.43591 7.883 8.95831 7.70432C9.98477 6.96228 10.6559 5.74219 10.6559 4.36539C10.6559 2.10907 8.85364 0.273438 6.63837 0.273438C4.4231 0.273438 2.62088 2.10907 2.62088 4.36539C2.62088 5.74219 3.29196 6.96228 4.31842 7.70432C2.13397 8.52158 0.458556 10.4651 0.0239856 12.912C-0.0562756 13.3644 0.0670155 13.8258 0.361968 14.178C0.654174 14.5267 1.0805 14.7266 1.53171 14.7266H11.745C12.1962 14.7266 12.6226 14.5267 12.9148 14.178C13.2099 13.8258 13.333 13.3644 13.2527 12.912C13.1992 12.6102 13.1266 12.3161 13.0367 12.0309H18.6818C19.0703 12.0309 19.4374 11.8588 19.6889 11.5588C19.9425 11.2563 20.0484 10.8595 19.9794 10.4707ZM12.6584 3.87802C12.6584 2.70447 13.5872 1.74988 14.7289 1.74988C15.8705 1.74988 16.7993 2.70447 16.7993 3.87802C16.7993 5.05142 15.8705 6.00601 14.7289 6.00601C13.5872 6.00601 12.6584 5.05142 12.6584 3.87802ZM3.79275 4.36539C3.79275 2.75528 5.0693 1.44531 6.63837 1.44531C8.20743 1.44531 9.48413 2.75528 9.48413 4.36539C9.48413 5.9755 8.20743 7.28546 6.63837 7.28546C5.0693 7.28546 3.79275 5.9755 3.79275 4.36539ZM12.0166 13.4253C11.976 13.4737 11.8869 13.5547 11.745 13.5547H1.53171C1.3898 13.5547 1.30069 13.4737 1.2601 13.4253C1.21799 13.3749 1.15115 13.2678 1.17786 13.1168C1.65729 10.417 3.95373 8.45734 6.63837 8.45734C9.323 8.45734 11.6196 10.417 12.0989 13.1168C12.1257 13.2678 12.0589 13.3749 12.0166 13.4253ZM18.7908 10.8061C18.7741 10.826 18.738 10.8591 18.682 10.8591H12.5441C12.1975 10.2095 11.7522 9.62677 11.2299 9.12964C11.9931 7.9155 13.2976 7.17789 14.7289 7.17789C16.7429 7.17789 18.4656 8.64884 18.8256 10.6757C18.8369 10.7396 18.8086 10.7849 18.7908 10.8061Z" fill="#6C6C78"/>
</svg>
