<svg width="20" height="21" viewBox="0 0 20 21" fill="none" xmlns="http://www.w3.org/2000/svg">
<path d="M9.99994 0.929199C9.57406 0.929199 9.19075 1.18265 9.02244 1.57512L6.73982 6.9169L0.966356 7.44105C0.54215 7.48027 0.183865 7.76699 0.0521782 8.17197C-0.0795085 8.57771 0.0430227 9.02114 0.363771 9.30115L4.72729 13.1278L3.44063 18.7956C3.34648 19.2114 3.50808 19.6423 3.854 19.893C4.03971 20.0273 4.2573 20.0956 4.47642 20.0956C4.66564 20.0956 4.85317 20.0447 5.02148 19.9447L9.99994 16.968L14.9784 19.9431C15.3417 20.1614 15.8018 20.1422 16.1468 19.8922C16.4926 19.6423 16.6543 19.2114 16.56 18.7946L15.2734 13.1271L19.6369 9.30115C19.9576 9.02114 20.0794 8.57695 19.9477 8.17197C19.816 7.76699 19.4577 7.47935 19.0326 7.44105L13.2601 6.9169L10.9774 1.5742C10.8091 1.18265 10.4258 0.929199 9.99994 0.929199Z" fill="#2DC28D"/>
</svg>
