<svg width="14" height="14" viewBox="0 0 14 14" fill="none" xmlns="http://www.w3.org/2000/svg">
<path d="M1.66683 5.66683C1.66683 3.46083 3.46083 1.66683 5.66683 1.66683C7.87283 1.66683 9.66683 3.46083 9.66683 5.66683C9.66683 7.87283 7.87283 9.66683 5.66683 9.66683C3.46083 9.66683 1.66683 7.87283 1.66683 5.66683ZM13.4715 12.5288L9.87483 8.9315C10.6041 7.99952 11.0002 6.8502 11.0002 5.66683C11.0002 2.72616 8.6075 0.333496 5.66683 0.333496C2.72616 0.333496 0.333496 2.72616 0.333496 5.66683C0.333496 8.6075 2.72616 11.0002 5.66683 11.0002C6.85013 10.9998 7.99932 10.6037 8.9315 9.87483L12.5288 13.4715C12.5906 13.5336 12.664 13.5829 12.7449 13.6166C12.8258 13.6502 12.9126 13.6675 13.0002 13.6675C13.0878 13.6675 13.1745 13.6502 13.2554 13.6166C13.3363 13.5829 13.4097 13.5336 13.4715 13.4715C13.5335 13.4096 13.5826 13.3362 13.6162 13.2553C13.6497 13.1744 13.667 13.0877 13.667 13.0002C13.667 12.9126 13.6497 12.8259 13.6162 12.745C13.5826 12.6642 13.5335 12.5907 13.4715 12.5288Z" fill="#6C6C78"/>
</svg>
