<svg width="18" height="17" viewBox="0 0 18 17" fill="none" xmlns="http://www.w3.org/2000/svg">
<path d="M8.99088 0.166561C8.8813 0.167639 8.77301 0.190392 8.6722 0.233556C8.57139 0.276719 8.48004 0.33944 8.40339 0.418103C8.32674 0.496765 8.26628 0.589883 8.22548 0.69204C8.18468 0.794197 8.16433 0.903397 8.16561 1.01346V7.71185C8.16567 7.93404 8.25359 8.14714 8.41003 8.30423C8.56647 8.46132 8.77863 8.54952 8.99984 8.54952C9.22105 8.54952 9.4332 8.46132 9.58965 8.30423C9.74609 8.14714 9.83401 7.93404 9.83407 7.71185V1.01346C9.83536 0.901882 9.81444 0.79115 9.77253 0.687811C9.73061 0.584472 9.66855 0.490566 9.59 0.411663C9.51144 0.33276 9.41797 0.270464 9.31509 0.228365C9.2122 0.186266 9.10197 0.165257 8.99088 0.166561ZM13.853 1.84565C13.8259 1.84487 13.7987 1.84541 13.7716 1.84729C13.6069 1.86134 13.45 1.92432 13.3209 2.02818C13.1919 2.13204 13.0965 2.27208 13.0469 2.43053C12.9974 2.58899 12.9959 2.75872 13.0426 2.91805C13.0893 3.07737 13.1822 3.21913 13.3093 3.3253C14.753 4.55667 15.6663 6.38943 15.6663 8.44754C15.6663 12.1637 12.6954 15.159 9.0039 15.159C5.31238 15.159 2.33495 12.1637 2.33496 8.44754C2.33496 6.40134 3.23669 4.58102 4.66592 3.34981C4.74918 3.27842 4.81763 3.19123 4.86736 3.09327C4.91709 2.99531 4.94712 2.88848 4.95574 2.77887C4.96436 2.66925 4.9514 2.55905 4.91759 2.45447C4.88379 2.34988 4.82981 2.25301 4.75873 2.16938C4.68766 2.08575 4.60088 2.01699 4.50334 1.96705C4.40581 1.91711 4.29944 1.88689 4.19031 1.87824C4.08117 1.86958 3.97141 1.88263 3.86729 1.91659C3.76316 1.95054 3.66672 2.00475 3.58346 2.07614C1.79933 3.61309 0.666512 5.90398 0.666504 8.44754C0.666496 13.067 4.41007 16.8332 9.00391 16.8332C13.5977 16.8332 17.3332 13.067 17.3332 8.44754C17.3332 5.88915 16.1891 3.58883 14.3869 2.05163C14.2387 1.92187 14.0496 1.84892 13.853 1.84565H13.853Z" fill="#EB5A5A"/>
</svg>
